<svg width="52" height="76" viewBox="0 0 52 76" fill="none" xmlns="http://www.w3.org/2000/svg">
  <path d="M26 52C30.065 51.9947 33.9621 50.3775 36.8365 47.5031C39.7109 44.6287 41.328 40.7317 41.3333 36.6667V15.3333C41.3333 11.2667 39.7179 7.36659 36.8423 4.49103C33.9667 1.61547 30.0667 0 26 0C21.9333 0 18.0333 1.61547 15.1577 4.49103C12.2821 7.36659 10.6667 11.2667 10.6667 15.3333V36.6667C10.672 40.7317 12.2891 44.6287 15.1635 47.5031C18.038 50.3775 21.935 51.9947 26 52ZM14.6667 15.3333C14.6667 12.3275 15.8607 9.44487 17.9861 7.31946C20.1115 5.19404 22.9942 4 26 4C29.0058 4 31.8885 5.19404 34.0139 7.31946C36.1393 9.44487 37.3333 12.3275 37.3333 15.3333V36.6667C37.3333 39.6725 36.1393 42.5551 34.0139 44.6805C31.8885 46.806 29.0058 48 26 48C22.9942 48 20.1115 46.806 17.9861 44.6805C15.8607 42.5551 14.6667 39.6725 14.6667 36.6667V15.3333ZM28 62.5833V74C28 74.5304 27.7893 75.0391 27.4142 75.4142C27.0391 75.7893 26.5304 76 26 76C25.4696 76 24.9609 75.7893 24.5858 75.4142C24.2107 75.0391 24 74.5304 24 74V62.5833C17.4736 62.0728 11.3792 59.122 6.93132 54.3188C2.4834 49.5157 0.00856517 43.213 0 36.6667C0 36.1362 0.210713 35.6275 0.585786 35.2525C0.960859 34.8774 1.46957 34.6667 2 34.6667C2.53043 34.6667 3.03914 34.8774 3.41421 35.2525C3.78929 35.6275 4 36.1362 4 36.6667C4 42.5014 6.31785 48.0972 10.4437 52.223C14.5695 56.3488 20.1652 58.6667 26 58.6667C31.8348 58.6667 37.4306 56.3488 41.5564 52.223C45.6822 48.0972 48 42.5014 48 36.6667C48 36.1362 48.2107 35.6275 48.5858 35.2525C48.9609 34.8774 49.4696 34.6667 50 34.6667C50.5304 34.6667 51.0391 34.8774 51.4142 35.2525C51.7893 35.6275 52 36.1362 52 36.6667C51.9914 43.213 49.5166 49.5157 45.0687 54.3188C40.6208 59.122 34.5264 62.0728 28 62.5833Z" fill="#444444"/>
</svg>
